<svg width="110" height="110" viewBox="0 0 110 110" fill="none" xmlns="http://www.w3.org/2000/svg">
<rect x="30" y="20" width="10" height="10" fill="#D0B7FF"/>
<rect x="35" y="45" width="5" height="20" fill="#D0B7FF"/>
<rect x="70" y="45" width="5" height="20" fill="#D0B7FF"/>
<rect x="40" y="60" width="5" height="30" fill="#D0B7FF"/>
<rect x="65" y="60" width="5" height="30" fill="#D0B7FF"/>
<rect x="90" y="35" width="10" height="35" fill="#D0B7FF"/>
<rect x="15" y="65" width="10" height="10" fill="#D0B7FF"/>
<rect x="85" y="65" width="10" height="10" fill="#D0B7FF"/>
<rect x="80" y="70" width="10" height="20" fill="#D0B7FF"/>
<rect x="20" y="90" width="70" height="10" fill="#D0B7FF"/>
<rect x="20" y="70" width="10" height="20" fill="#D0B7FF"/>
<rect x="10" y="35" width="10" height="35" fill="#D0B7FF"/>
<rect x="70" y="20" width="10" height="10" fill="#D0B7FF"/>
<rect x="30" y="10" width="50" height="10" fill="#D0B7FF"/>
<rect x="10" y="25" width="90" height="15" fill="#D0B7FF"/>
</svg>
