<svg width="100" height="100" viewBox="0 0 100 100" fill="none" xmlns="http://www.w3.org/2000/svg">
<rect x="20" y="30" width="10" height="10" fill="#D0B7FF"/>
<rect x="30" y="20" width="15" height="10" fill="#D0B7FF"/>
<rect x="40" y="10" width="10" height="10" fill="#D0B7FF"/>
<rect x="50" y="10" width="10" height="10" fill="#D0B7FF"/>
<rect x="55" y="20" width="15" height="10" fill="#D0B7FF"/>
<rect x="70" y="30" width="10" height="10" fill="#D0B7FF"/>
<rect x="60" y="30" width="10" height="10" fill="#D0B7FF"/>
<rect x="30" y="30" width="10" height="10" fill="#D0B7FF"/>
<rect x="80" y="40" width="10" height="15" fill="#D0B7FF"/>
<rect x="10" y="40" width="10" height="15" fill="#D0B7FF"/>
<rect x="20" y="40" width="10" height="10" fill="#D0B7FF"/>
<rect x="70" y="40" width="10" height="10" fill="#D0B7FF"/>
<rect x="70" y="50" width="10" height="10" fill="#D0B7FF"/>
<rect x="20" y="50" width="10" height="10" fill="#D0B7FF"/>
<rect x="20" y="60" width="10" height="10" fill="#D0B7FF"/>
<rect x="70" y="60" width="10" height="10" fill="#D0B7FF"/>
<rect x="20" y="70" width="10" height="10" fill="#D0B7FF"/>
<rect x="20" y="80" width="10" height="10" fill="#D0B7FF"/>
<rect x="70" y="70" width="10" height="10" fill="#D0B7FF"/>
<rect x="70" y="80" width="10" height="10" fill="#D0B7FF"/>
<rect x="30" y="80" width="10" height="10" fill="#D0B7FF"/>
<rect x="40" y="80" width="10" height="10" fill="#D0B7FF"/>
<rect x="50" y="80" width="10" height="10" fill="#D0B7FF"/>
<rect x="60" y="80" width="10" height="10" fill="#D0B7FF"/>
</svg>
