<svg width="100" height="100" viewBox="0 0 100 100" fill="none" xmlns="http://www.w3.org/2000/svg">
<path d="M20 10H35V15H20V10Z" fill="#D0B7FF"/>
<path d="M65 10H75V15H65V10Z" fill="#D0B7FF"/>
<path d="M75 10H80V15H75V10Z" fill="#D0B7FF"/>
<path d="M80 15H85V20H80V15Z" fill="#D0B7FF"/>
<path d="M85 25H90V45H85V25Z" fill="#D0B7FF"/>
<path d="M80 20H85V25H80V20Z" fill="#D0B7FF"/>
<path d="M17 83H22V88H17V83Z" fill="#D0B7FF"/>
<path d="M30 88H35V93H30V88Z" fill="#D0B7FF"/>
<path d="M13 73H18V78H13V73Z" fill="#D0B7FF"/>
<path d="M7 37H12V42H7V37Z" fill="#D0B7FF"/>
<path d="M13 23H18V28H13V23Z" fill="#D0B7FF"/>
<path d="M8 58H13V63H8V58Z" fill="#D0B7FF"/>
<path d="M65 87H70V92H65V87Z" fill="#D0B7FF"/>
<path d="M30 7H35V12H30V7Z" fill="#D0B7FF"/>
<path d="M65 8H70V13H65V8Z" fill="#D0B7FF"/>
<path d="M77 13H82V18H77V13Z" fill="#D0B7FF"/>
<path d="M82 23H87V28H82V23Z" fill="#D0B7FF"/>
<path d="M87 42H92V47H87V42Z" fill="#D0B7FF"/>
<path d="M62 58H67V63H62V58Z" fill="#D0B7FF"/>
<path d="M65 25H75V35H65V25Z" fill="#D0B7FF"/>
<path d="M68 23H73V37H68V23Z" fill="#D0B7FF"/>
<path d="M63 28H77V33H63V28Z" fill="#D0B7FF"/>
<path d="M45 17H55V27H45V17Z" fill="#D0B7FF"/>
<path d="M48 15H53V29H48V15Z" fill="#D0B7FF"/>
<path d="M43 20H57V25H43V20Z" fill="#D0B7FF"/>
<path d="M25 27H35V37H25V27Z" fill="#D0B7FF"/>
<path d="M28 25H33V39H28V25Z" fill="#D0B7FF"/>
<path d="M23 30H37V35H23V30Z" fill="#D0B7FF"/>
<path d="M21 47H31V57H21V47Z" fill="#D0B7FF"/>
<path d="M24 45H29V59H24V45Z" fill="#D0B7FF"/>
<path d="M19 50H33V55H19V50Z" fill="#D0B7FF"/>
<path d="M60 65H65V70H60V65Z" fill="#D0B7FF"/>
<path d="M65 68H70V77H65V68Z" fill="#D0B7FF"/>
<path d="M70 75H80V80H70V75Z" fill="#D0B7FF"/>
<path d="M65 85H80V90H65V85Z" fill="#D0B7FF"/>
<path d="M35 90H65V95H35V90Z" fill="#D0B7FF"/>
<path d="M20 85H35V90H20V85Z" fill="#D0B7FF"/>
<path d="M10 60H15V75H10V60Z" fill="#D0B7FF"/>
<path d="M5 40H10V60H5V40Z" fill="#D0B7FF"/>
<path d="M15 15H20V25H15V15Z" fill="#D0B7FF"/>
<path d="M10 25H15V40H10V25Z" fill="#D0B7FF"/>
<path d="M78 80H83V85H78V80Z" fill="#D0B7FF"/>
<path d="M90 45H95V60H90V45Z" fill="#D0B7FF"/>
<path d="M85 58H90V63H85V58Z" fill="#D0B7FF"/>
<path d="M65 55H85V60H65V55Z" fill="#D0B7FF"/>
<path d="M15 75H20V85H15V75Z" fill="#D0B7FF"/>
<path d="M60 60H65V65H60V60Z" fill="#D0B7FF"/>
<path d="M35 5H65V10H35V5Z" fill="#D0B7FF"/>
</svg>
