<svg width="100" height="100" viewBox="0 0 100 100" fill="none" xmlns="http://www.w3.org/2000/svg">
<rect x="20" y="10" width="10" height="10" fill="#D0B7FF"/>
<rect x="30" y="10" width="10" height="10" fill="#D0B7FF"/>
<rect x="40" y="10" width="10" height="10" fill="#D0B7FF"/>
<rect x="50" y="20" width="10" height="10" fill="#D0B7FF"/>
<rect x="10" y="20" width="10" height="10" fill="#D0B7FF"/>
<rect x="10" y="30" width="10" height="10" fill="#D0B7FF"/>
<rect x="50" y="30" width="10" height="10" fill="#D0B7FF"/>
<rect x="10" y="40" width="10" height="10" fill="#D0B7FF"/>
<rect x="20" y="50" width="10" height="10" fill="#D0B7FF"/>
<rect x="50" y="40" width="10" height="10" fill="#D0B7FF"/>
<rect x="30" y="50" width="10" height="10" fill="#D0B7FF"/>
<rect x="40" y="50" width="10" height="10" fill="#D0B7FF"/>
<rect x="50" y="50" width="10" height="10" fill="#D0B7FF"/>
<rect x="45" y="45" width="10" height="10" fill="#D0B7FF"/>
<rect x="55" y="55" width="10" height="10" fill="#D0B7FF"/>
<rect x="63" y="62" width="10" height="10" fill="#D0B7FF"/>
<rect x="68" y="67" width="10" height="10" fill="#D0B7FF"/>
<rect x="75" y="75" width="10" height="10" fill="#D0B7FF"/>
<rect x="45" y="15" width="10" height="10" fill="#D0B7FF"/>
<rect x="15" y="15" width="10" height="10" fill="#D0B7FF"/>
<rect x="15" y="45" width="10" height="10" fill="#D0B7FF"/>
</svg>
