<svg width="100" height="100" viewBox="0 0 100 100" fill="none" xmlns="http://www.w3.org/2000/svg">
<rect x="30" y="10" width="10" height="10" fill="#D0B7FF"/>
<rect x="20" y="20" width="10" height="10" fill="#D0B7FF"/>
<rect x="10" y="30" width="10" height="10" fill="#D0B7FF"/>
<rect x="10" y="40" width="10" height="10" fill="#D0B7FF"/>
<rect x="10" y="50" width="10" height="10" fill="#D0B7FF"/>
<rect x="20" y="60" width="10" height="10" fill="#D0B7FF"/>
<rect x="40" y="60" width="10" height="10" fill="#D0B7FF"/>
<rect x="40" y="70" width="10" height="10" fill="#D0B7FF"/>
<rect x="50" y="80" width="10" height="10" fill="#D0B7FF"/>
<rect x="60" y="80" width="10" height="10" fill="#D0B7FF"/>
<rect x="70" y="80" width="10" height="10" fill="#D0B7FF"/>
<rect x="80" y="70" width="10" height="10" fill="#D0B7FF"/>
<rect x="80" y="60" width="10" height="10" fill="#D0B7FF"/>
<rect x="80" y="50" width="10" height="10" fill="#D0B7FF"/>
<rect x="40" y="10" width="10" height="10" fill="#D0B7FF"/>
<rect x="50" y="10" width="10" height="10" fill="#D0B7FF"/>
<rect x="60" y="10" width="10" height="10" fill="#D0B7FF"/>
<rect x="70" y="20" width="10" height="10" fill="#D0B7FF"/>
<rect x="80" y="30" width="10" height="10" fill="#D0B7FF"/>
<rect x="80" y="40" width="10" height="10" fill="#D0B7FF"/>
<rect x="50" y="30" width="10" height="10" fill="#D0B7FF"/>
<rect x="50" y="40" width="10" height="10" fill="#D0B7FF"/>
<rect x="60" y="40" width="10" height="10" fill="#D0B7FF"/>
<rect x="60" y="50" width="10" height="10" fill="#D0B7FF"/>
<rect x="50" y="50" width="10" height="10" fill="#D0B7FF"/>
<rect x="40" y="30" width="10" height="10" fill="#D0B7FF"/>
<rect x="75" y="75" width="10" height="10" fill="#D0B7FF"/>
<rect x="25" y="15" width="10" height="10" fill="#D0B7FF"/>
<rect x="25" y="55" width="20" height="10" fill="#D0B7FF"/>
<rect x="65" y="15" width="10" height="10" fill="#D0B7FF"/>
<rect x="75" y="25" width="10" height="10" fill="#D0B7FF"/>
</svg>
